<?xml version="1.0" encoding="utf-8"?>
<!-- Generator: Adobe Illustrator 27.1.0, SVG Export Plug-In . SVG Version: 6.00 Build 0)  -->
<svg version="1.1" id="Capa_1" xmlns="http://www.w3.org/2000/svg" xmlns:xlink="http://www.w3.org/1999/xlink" x="0px" y="0px"
	 viewBox="0 0 105.3 112" style="enable-background:new 0 0 105.3 112;" xml:space="preserve">
<style type="text/css">
	.st0{fill:#104C77;}
</style>
<g>
	<path class="st0" d="M45.4,1.6c8.1,3.8,10.6,8.9,10.7,19.2c0,5.7-0.3,11.3-2.9,16.4c-3.2,6.4-8.4,9.3-15.6,9.1
		c-7.1-0.2-12.1-3.4-14.8-9.7c-3.4-7.7-3.7-15.8-1.7-24c1.3-5.6,4.8-9.4,9.7-11.2C34.6-0.1,41.6-0.1,45.4,1.6z"/>
	<path class="st0" d="M57.1,111.3c-5.7-5.7-11.4-11.4-17-17.2c-1.4-1.5-2.1-0.7-3.2,0.3c-3.8,3.8-7.6,7.7-11.5,11.5
		c-2.4,2.3-4.4,2.4-6.3,0.5c-2.1-2.3-1.2-4.1,0.7-6C25,95.3,30.1,90.1,35.3,85c2.6-2.5,4.1-2.5,6.7,0.1c5,4.9,9.9,9.8,14.8,14.8
		c1.6,1.6,2.5,1.5,4,0c8.7-8.8,17.5-17.5,26.3-26.2c1.4-1.4,1.7-2.4,0-3.6c-0.7-0.5-1.3-1.2-1.9-1.9c-1.8-2.1-1.4-3.5,1.3-3.8
		c4.5-0.4,9-0.4,13.6-0.6c1.9-0.1,2.8,0.9,2.7,2.8c-0.2,4.4-0.3,8.8-0.7,13.2c-0.2,2.6-1.8,3.1-3.8,1.4c-4.2-3.5-4.2-3.5-8.1,0.4
		c-9.9,9.9-19.9,19.8-29.8,29.8C59.5,112.2,58.2,112.3,57.1,111.3z"/>
	<path class="st0" d="M44.6,72.1c1.9-6,3.9-11.9,5.7-17.9c0.7-2.3,1.4-3.1,3.8-1.7c5.1,2.9,10.3,5.5,15.3,8.7c5,3.2,6.7,8,6.7,13.6
		c0,1.2-0.6,2-1.5,2.8c-4.8,4.8-9.6,9.5-14.3,14.3c-1.2,1.2-2,1.2-3.2,0c-3.8-3.9-7.6-7.7-11.5-11.5c-4.3-4.3-9.7-4.4-14.1-0.1
		c-4.3,4.1-8.5,8.4-12.7,12.6c-0.7,0.7-1.5,1.7-2.3,1.8c-5.1,0.2-10.2,0.1-15.2,0.1c-1.2,0-1.2-1.1-1.2-2c0.1-7.2-0.4-14.4,0.3-21.5
		c0.4-4.3,2.7-7.5,6.1-9.8c5.1-3.5,10.6-6.3,16.1-9.2c1.8-0.9,2.5-0.5,3,1.3c1.9,6.2,3.9,12.4,6.1,19.2c1.9-3.6,2.9-6.8,3.8-10
		c0.4-1.6-1.3-2.9-1.9-4.4c-1.7-4.4,0.3-7.3,5-7c3.9,0.2,6.2,3.1,4.2,6.2C39.2,63,42.4,67.3,44.6,72.1z"/>
	<path class="st0" d="M86.4,41.8c-0.3,3.6-1.9,6.3-5,7.8c-1.9,0.9-3.3,1.6-2.9,4c0.2,1.3-0.7,2-2.1,2c-1.3,0-3.3,0.4-3.3-1.3
		c0.1-3.4-2.2-3.5-4.4-4c-3-0.7-3.6-2.4-2.5-5.2c0.6-1.7,1.4-2,3-1.4c2.1,0.9,4.2,1.5,6.4,1.2c1.5-0.2,2.9-0.8,3.2-2.4
		c0.3-1.6-0.9-2.4-2.1-3.1c-1.8-0.9-3.6-1.6-5.4-2.4c-3.2-1.6-5.5-3.9-5.5-7.6c0-3.8,1.8-6.6,5.3-8.1c1.5-0.6,2.3-1.6,2.3-3.2
		c0-1.7,1-2.3,2.5-2.3c1.4,0,2.8,0.2,2.7,2c-0.1,2.4,1.8,2.4,3.3,2.9c3.3,1,3.7,2,2.4,5c-0.6,1.4-1.4,1.8-2.8,1.2
		c-1.8-0.7-3.6-1-5.5-0.8c-1.2,0.1-2.2,0.6-2.6,1.8C73,29.3,74,30.1,75,30.6c2,1,4,1.9,6,2.9C84.4,35.2,86.3,38,86.4,41.8z"/>
</g>
</svg>
