<?xml version="1.0" encoding="utf-8"?>
<!-- Generator: Adobe Illustrator 27.1.0, SVG Export Plug-In . SVG Version: 6.00 Build 0)  -->
<svg version="1.1" fill="#000000" id="Capa_1" xmlns="http://www.w3.org/2000/svg" xmlns:xlink="http://www.w3.org/1999/xlink" x="0px" y="0px"
	 viewBox="0 0 114 112" style="enable-background:new 0 0 114 112;" xml:space="preserve">

<g>
	<path class="st0" d="M60.5,1.6c2.4,0.3,4.9,0.6,7.3,1.1c8.8,1.9,16.6,5.7,23.5,11.5c8,6.7,13.5,15,16.8,24.8
		c1.4,4.2,2.2,8.6,2.5,13.1c0.7,10-1.2,19.5-5.7,28.5c-1.5,3-3.3,5.8-5.3,8.4c-0.5,0.6-0.7,0.6-1.1-0.1c-2.3-4.2-4.6-8.3-6.8-12.5
		c-0.5-0.8-0.8-0.8-1.5-0.3c-3.2,2.5-6.5,4.9-9.8,7.3c-0.7,0.5-1,0.4-1.5-0.2c-2.4-3.3-4.8-6.5-7.2-9.7c-0.4-0.6-0.5-1-0.1-1.7
		c2.5-5.5,1.5-11.4-2.6-15.4c-1.2-1.2-2.6-2-4.2-2.7c-1.9-0.7-3.8-1.4-5.7-1.9c-0.8-0.2-1-0.5-1-1.3c0-3.8,0-7.6,0-11.4
		c0-0.9,0.3-1,1.1-0.7c2.3,1,3.7,2.7,4.4,5.2c0.4,1.4,1.1,2.5,2.6,3c3.1,1,5.8-1.4,5.2-4.6c-0.8-4.5-4.9-8.5-10-9.6
		c-1.9-0.4-1.9-0.4-1.3-2.3c2.2-6.1,4.4-12.1,6.5-18.2c0.4-1.2,0.4-1.2-0.9-1.3c-3.9-0.1-7.7-0.2-11.6-0.2c-1.3,0-1.4-0.1-0.7-1.2
		c1.5-2.6,3-5.1,4.5-7.7C58.9,1.6,59.7,1.6,60.5,1.6z"/>
	<path class="st0" d="M53.3,110.4c-2.5-0.3-5.1-0.5-7.6-1c-8.1-1.6-15.4-5-22-9.9c-1.1-0.8-1.1-0.8,0.1-1.5
		c4.1-2.3,8.2-4.5,12.4-6.8c0.7-0.4,0.8-0.6,0.3-1.2c-2.6-3.3-5.1-6.7-7.6-10.1c-0.3-0.4-0.5-0.7,0.1-1.1c3.7-2.7,7.4-5.5,11.1-8.2
		c0.1-0.1,0.2-0.1,0.4-0.2c2,4.4,5.3,7.2,9.9,8.7c1,0.3,2,0.6,3.1,0.6c0.8,0.1,1.2,0.4,1.1,1.3c-0.1,1.1-0.1,2.2,0,3.3
		c0,1.4,0.8,2.2,2,2.2c1.1,0,1.8-0.8,1.8-2.3c0-1,0.1-1.9,0-2.9c-0.2-1.3,0.5-1.5,1.6-1.7c2.4-0.3,4.6-1,6.7-2.2
		c1.3-0.7,2.4-1.7,3.4-2.9c0.5-0.6,0.7-0.5,1,0.1c2,4.2,3.9,8.4,5.9,12.6c1.2,2.5,2.3,4.9,3.4,7.4c0.4,0.8,0.6,0.8,1.2,0.2
		c2.9-2.8,5.8-5.6,8.7-8.4c0.2-0.2,0.4-0.5,0.9-0.6c0.6,2.1,1,4.3,1.8,6.3c1.1,2.6,0.3,4.2-1.9,5.9c-6.3,4.9-13.2,8.5-20.9,10.5
		c-3.1,0.8-6.2,1.4-9.4,1.5c-0.3,0-0.6,0.1-0.8,0.1C57.7,110.4,55.5,110.4,53.3,110.4z"/>
	<path class="st0" d="M58.7,27.4c-0.4-0.2-0.4-0.5-0.4-0.7c-0.4-0.9-1.1-1.4-2.1-1.2c-0.9,0.1-1.5,0.9-1.5,1.9c0,1.2,0,2.5,0,3.7
		c0,0.6-0.2,0.9-0.9,1c-2.6,0.4-5.1,1-7.3,2.4c-3.3,2.1-5,5.2-5.3,9c-0.4,4.2,0.5,8,3.9,10.8c1.5,1.3,3.3,2.2,5.2,2.8
		c1.2,0.4,2.5,0.9,3.7,1.2c0.5,0.2,0.7,0.5,0.7,1c0,4.5,0,9,0,13.5c0,0.9-0.5,0.7-1,0.5c-2.1-0.9-3.7-2.2-4.6-4.3
		c-0.5-1.2-0.9-2.4-1.3-3.6c-0.7-2-2.4-3-4.5-2.7c-2,0.3-3.5,2-3.5,4.1c0,0.4,0,0.9,0.1,1.3c0.4,1.1-0.1,1.5-1,1.9
		c-7,3.2-14,6.5-21,9.8c-0.9,0.4-1,0.7-0.3,1.4c2.8,2.9,5.5,5.8,8.3,8.6c0.6,0.6,0.6,0.9-0.3,1.1c-2.6,0.7-5.3,1.4-7.9,2.1
		c-0.7,0.2-1.2,0.1-1.7-0.5C8.8,84.4,4.3,75.1,2.7,64.4c-1.3-8.1-0.7-16,1.5-23.8C6.7,32.2,11,24.8,17,18.5c4.6-4.8,9.9-8.7,16-11.6
		c5.1-2.4,10.5-4,16.1-4.8C50,2,50.1,2.2,49.9,3c-1.4,4.5-2.6,9-4,13.5c-0.3,0.9-0.1,1.2,0.8,1.3c4.1,0.5,8.1,1.1,12.2,1.7
		c0.4,0.1,0.9,0.1,0.8,0.7C59.3,22.5,59,24.9,58.7,27.4z"/>
	<path class="st0" d="M58.3,66.8c0-2,0-4,0-5.9c0-1,0.3-1.1,1.1-0.8c0.7,0.3,1.5,0.6,2.2,1c4.9,2.3,4.4,7.8,1.8,10.4
		c-1.2,1.2-2.6,2-4.2,2.3c-0.8,0.2-0.9-0.1-0.9-0.8C58.4,70.9,58.3,68.9,58.3,66.8z"/>
	<path class="st0" d="M54.5,44.2c0,1.8,0,3.5,0,5.3c0,0.4,0.1,1-0.7,0.7c-3.7-1.4-5.7-3.2-4.9-7.5c0.4-1.9,3-4.3,4.9-4.5
		c0.6-0.1,0.6,0.3,0.6,0.7C54.5,40.7,54.5,42.4,54.5,44.2L54.5,44.2z"/>
</g>
</svg>
