<?xml version="1.0" encoding="utf-8"?>
<!-- Generator: Adobe Illustrator 27.1.0, SVG Export Plug-In . SVG Version: 6.00 Build 0)  -->
<svg version="1.1" id="Capa_1" xmlns="http://www.w3.org/2000/svg" xmlns:xlink="http://www.w3.org/1999/xlink" x="0px" y="0px"
	 viewBox="0 0 105.3 112" style="enable-background:new 0 0 105.3 112;" xml:space="preserve">
<style type="text/css">
	.st0{fill:#104C77;}
</style>
<g>
	<path class="st0" d="M85.6,62.7c0,7.2,0,14.5,0,21.7c0,5.7-0.1,11.3-0.2,17c0,1-0.3,1.9-0.8,2.8c-1.5,2.7-3.9,4.4-6.6,5.6
		c-1,0.4-2.2,0.2-3.3,0.1c-1.6-0.1-3.1-0.1-4.6,0c-1.4,0.1-2.8-0.1-4.3-0.1c-3.9,0.1-7.8,0-11.7,0c-3.7,0-7.5,0.1-11.2,0
		c-3.9-0.1-7.9,0.1-11.8,0.1s-7.8,0.1-11.7-0.2c-2.2-0.2-4.1-1.7-5.7-3.2c-2.3-2.3-2.7-5.2-2.7-8.2c0-6.7-0.1-13.3-0.1-20
		c0-9.9-0.1-19.8-0.1-29.7c0-7.1,0.1-14.1,0.2-21.2c0-1.9,0.1-3.8,0.6-5.6c0.7-2.6,2.6-4.3,4.8-5.7c1.6-1,3.5-0.9,5.3-1
		c4.1-0.1,8.3,0,12.4-0.1c11.2-0.2,22.4-0.1,33.5-0.1c3,0,6.1,0.2,9.1,0.3c2.2,0.1,4,1,5.4,2.5c2.1,2.1,3.6,4.4,3.6,7.5
		C85.6,37.7,85.6,50.2,85.6,62.7L85.6,62.7z M48.2,33.9L48.2,33.9c-6.4,0-12.7,0-19.1,0c-1.9,0-3.7,0-5.6,0c-0.7,0-1.1,0.3-1,1
		c0,0.8,0,1.6,0,2.3c0.1,2.3-0.3,2.2,2.2,2.2c10.4,0,20.9,0,31.3,0c5.5,0,11,0,16.5,0c1.5,0,1.6-0.1,1.5-1.6c0-0.8,0-1.7,0-2.5
		c0-1.4,0-1.4-1.4-1.4C64.4,33.9,56.3,33.9,48.2,33.9z M48.1,64.8L48.1,64.8c0.4,0,0.7,0,1.1,0c7.7,0,15.5,0,23.2,0
		c1.4,0,1.5-0.1,1.5-1.4c0-0.8,0-1.6,0-2.4c0-1.7,0-1.7-1.7-1.7c-8.5,0-17,0-25.6,0c-7.6,0-15.3,0.1-22.9,0.2
		c-1.1,0-1.3,0.2-1.3,1.3c0,0.9,0,1.8,0,2.7c0,1.3,0.1,1.3,1.3,1.3C31.9,64.8,40,64.8,48.1,64.8z M48.1,77.7L48.1,77.7
		c2.3,0,4.6,0,6.9,0c5.9,0,11.8,0,17.7,0c0.9,0,1.3-0.3,1.2-1.3c-0.1-1.1-0.1-2.2,0-3.3c0-0.8-0.2-1.1-1-1c-3.2,0.2-6.5-0.1-9.7,0
		c-3.5,0.1-7,0-10.5,0c-3.9,0-7.9,0.2-11.8-0.1c-0.4,0-0.8,0-1.2,0c-4,0-8.1,0-12.1,0c-1.5,0-2.9-0.1-4.4,0.1
		c-0.6,0.1-0.9,0.3-0.9,1c0,1.2,0,2.3,0,3.5c0,0.7,0.3,1,1,1c0.6,0,1.2,0,1.7,0C32.8,77.7,40.5,77.7,48.1,77.7z M48.1,51.9
		c3.7,0,7.3,0,11,0c4.6,0,9.1,0,13.7,0c0.9,0,1.3-0.4,1.2-1.3c0-0.8,0-1.6,0-2.3c0-1.5,0-1.6-1.6-1.6c-13.3,0-26.6,0-39.9,0
		c-2.9,0-5.9,0-8.8,0c-0.9,0-1.3,0.3-1.2,1.3c0.1,0.9,0,1.7,0,2.6c0,1.2,0.1,1.3,1.3,1.3C31.8,51.9,40,51.9,48.1,51.9z M48.1,90.9
		c3.7,0,7.4,0,11.1,0c4.5,0,9,0,13.5,0c0.8,0,1.3-0.2,1.3-1.1s0-1.8,0-2.7c0-0.9-0.4-1.2-1.3-1.2c-5.9,0-11.9,0-17.8,0
		c-6.5,0-12.9,0-19.4,0c-3.9,0-7.9,0-11.8,0c-0.9,0-1.3,0.3-1.3,1.2c0.1,0.9,0,1.7,0,2.6c-0.1,0.9,0.3,1.2,1.3,1.2
		C31.8,90.9,39.9,90.9,48.1,90.9z"/>
	<path class="st0" d="M98.4,50.8c0,11.5,0,23,0,34.5c0,1-0.1,1.9-0.2,2.9c-0.4,3.7-2.5,6.1-5.7,7.7c-0.9,0.5-1.1,0.3-1.2-0.7
		c-0.2-6.3-0.2-12.5-0.2-18.8c0-13.7,0-27.5-0.1-41.2c0-3.9,0-7.7-0.3-11.6c-0.3-4.2-2.2-7.5-5.2-10.2s-6.7-3.9-10.8-3.8
		C70,9.7,65.3,9.5,60.6,9.5c-9.4,0.1-18.7-0.1-28.1-0.1c-2.2,0-4.5,0-6.7-0.2C24.4,9,24.2,8.6,25,7.3c1.6-2.5,3.9-4.1,6.6-5.1
		C32,2,32.4,2,32.8,2C47.4,2,62,2,76.6,2.1c4.6,0,9.3,0.1,14,0.1c0.7,0,1.3,0.1,1.8,0.5C93.7,3.5,95,4.2,96,5.3
		c1.3,1.5,2.2,3.2,2.3,5.3C98.6,24,98.3,37.4,98.4,50.8z"/>
</g>
</svg>
