<?xml version="1.0" encoding="utf-8"?>
<!-- Generator: Adobe Illustrator 27.1.0, SVG Export Plug-In . SVG Version: 6.00 Build 0)  -->
<svg version="1.1" id="Capa_1" xmlns="http://www.w3.org/2000/svg" xmlns:xlink="http://www.w3.org/1999/xlink" x="0px" y="0px"
	 viewBox="0 0 989.6 606.1" style="enable-background:new 0 0 989.6 606.1;" xml:space="preserve">
<style type="text/css">
	.st0{fill:#FFFFFF;}
</style>
<path class="st0" d="M309.2,25.3l0.1,288.5c0,0.4-0.4,0.8-0.8,0.8l-287.9,0l-5.5-0.1c-0.3,0-0.5-0.2-0.5-0.5v-294
	c0-0.3,0.2-0.5,0.5-0.5l0,0c87.8,0,175.7,0,263.6,0c7.7,0,19,0.2,28.5-0.1c1.2,0,1.9,0.6,1.9,1.8L309.2,25.3z M188.4,187.1
	c0.7,0,1.3,0.5,1.6,1.2l29.7,96.5c0.1,0.3,0.4,0.5,0.7,0.5l25-0.1c0.2,0,0.4-0.2,0.4-0.4c0,0,0-0.1,0-0.1L173.7,49.8
	c-0.1-0.4-0.4-0.7-0.8-0.7h-20.5c-0.4,0-0.8,0.2-0.9,0.6L78.5,284.6c-0.1,0.3,0.1,0.5,0.3,0.6c0,0,0.1,0,0.1,0l24.8-0.1
	c0.5,0,0.9-0.3,1-0.7l30.3-96.5c0.1-0.5,0.5-0.8,1-0.8H188.4z"/>
<path class="st0" d="M642.1,25.1c-0.8,8.4-0.2,18.6-0.2,24.9c0,88,0,175.9,0,263.7c0,0.5-0.4,1-1,1l0,0l-287.5,0l-5.5-0.3
	c-0.3,0-0.5-0.2-0.5-0.5V21.3c0-1,0.8-1.7,1.7-1.8c97.5,0,194.8,0.5,292.1,0.3c0.3,0,0.5,0.2,0.6,0.5L642.1,25.1z M476.5,208.1
	c21.5,0,36.5,1.5,52.1-6.6c19.7-10.2,34.3-31.7,38.9-52.9c5.3-25,1-50.7-14.4-71.6c-12-16.2-29.9-27.5-50.2-27.8
	c-7.6-0.1-15.3-0.1-22.9,0c-9.1,0.1-19.2-0.2-28.8,0c-0.3,0-0.5,0.2-0.5,0.5c-0.1,44.2,0,88.3,0.1,132.4
	c0.1,34.2-0.3,68.5-0.1,102.7c0,0.3,0.2,0.5,0.4,0.5l24.2-0.1c0.3,0,0.5-0.2,0.5-0.5l0,0v-76C475.9,208.3,476.2,208.1,476.5,208.1
	L476.5,208.1z"/>
<path class="st0" d="M975,26.6l0,286.8c0,0.5-0.4,0.9-0.9,0.9c-95.6,1-191.3,0-286.9,0.4l-6.5-0.3c-0.3,0-0.5-0.2-0.5-0.5V20.1
	c0-0.3,0.2-0.5,0.5-0.5l292.5,0c0.8,0,1.4,0.7,1.4,1.5L975,26.6z M831,210l41.7,76.3c0.2,0.3,0.4,0.5,0.5,0.5h28.2
	c0.2,0,0.3-0.1,0.3-0.3c0-0.1,0-0.1,0-0.2l-44.5-81c-0.1-0.2,0-0.4,0.1-0.5c0,0,0,0,0,0c13.7-5.2,25.8-20.4,32.9-32.7
	c8.3-14.6,11.2-31.2,10.3-48.1c-1.8-36-28.7-73.3-67.9-73.3c-16.7,0-33.2,0-49.5,0c-0.7,0-1.2,0.6-1.2,1.2l0,234
	c0,0.4,0.2,0.8,0.5,0.8h24.2c0.2,0,0.4-0.3,0.4-0.8l0,0l-0.1-75.8c0-0.4,0.2-0.7,0.4-0.8h22.8C830.5,209.6,830.8,209.8,831,210z"/>
<path class="st0" d="M526.1,84.9c16.7,14.9,21.5,37.9,16.5,59.2c-3.7,16.1-15.4,31.8-31.8,36.5c-2.8,0.8-6.8,1.2-12.1,1.2
	c-7.1,0-14.3,0.1-21.7,0.3c-0.6,0-1.1-0.4-1.1-1c0,0,0,0,0,0V75.3c0-0.2,0.2-0.4,0.5-0.4C494.6,74.6,512.3,72.5,526.1,84.9z"/>
<path class="st0" d="M857.6,86.7c16.1,14.7,21,36.5,16.6,57.5c-4.1,19.6-19.1,38.2-40.1,39.4c-4.9,0.3-13.7,0.3-26.5-0.1
	c-0.3,0-0.5-0.3-0.5-0.6l-0.1-105.8c0-0.2,0.2-0.4,0.5-0.4C828.2,76.5,843.7,74,857.6,86.7z"/>
<path class="st0" d="M143.3,161.1l19-61.4c0.1-0.2,0.2-0.3,0.4-0.2c0.1,0,0.2,0.1,0.2,0.2l18.8,61.5c0,0.2,0,0.3-0.2,0.4
	c0,0-0.1,0-0.1,0l-37.7-0.1C143.4,161.5,143.3,161.4,143.3,161.1C143.3,161.2,143.3,161.2,143.3,161.1z"/>
<path class="st0" d="M303.3,511.2c-38.3,0-69.3-35.2-69.3-78.6s31-78.6,69.3-78.6s69.3,35.2,69.3,78.6S341.6,511.2,303.3,511.2z
	 M303.3,494.2c28.9,0,52.3-27.6,52.3-61.5c0,0,0,0,0,0c0-34-23.4-61.5-52.3-61.5S251,398.6,251,432.6
	C251,466.6,274.4,494.2,303.3,494.2L303.3,494.2z"/>
<path class="st0" d="M812.6,511.3c-38.2,0-69.2-35.2-69.2-78.6s31-78.6,69.2-78.6s69.2,35.2,69.2,78.6S850.8,511.3,812.6,511.3z
	 M812.7,494.2c28.9-0.1,52.3-27.6,52.2-61.6c-0.1-34-23.5-61.5-52.4-61.4l0,0c-28.9,0.1-52.3,27.6-52.2,61.6
	C760.3,466.7,783.8,494.2,812.7,494.2L812.7,494.2z"/>
<path class="st0" d="M411.8,494.9c-20.2-18.2-29-43.9-26.5-70.6c5.6-60.9,70.3-95.3,117.7-46.7c0.3,0.3,0.3,0.8,0,1.1l-10.7,11
	c-0.2,0.2-0.6,0.2-0.9,0c0,0,0,0,0,0c-5.3-5.3-11.5-10.3-18.2-13.5c-32.7-15.6-63.3,10.3-69.8,41.7c-4.6,22.2,0.8,45.8,17.4,62.1
	c17.8,17.5,44.2,19.2,63.4,3.2c0.5-0.4,0.8-1,0.8-1.6v-45.2c0-0.3,0.2-0.5,0.5-0.5h15.8c0.3,0,0.5,0.3,0.5,0.8v51.2
	c0,0.2-0.2,0.6-0.5,0.9C477.8,515.8,438.6,519,411.8,494.9z"/>
<path class="st0" d="M917,418.5c-14.7-12.6-18.1-32.6-7.9-49.2c15.6-25.5,48.8-16.1,55.8,10.9c0.1,0.3,0,0.7-0.3,0.8l-13.9,6.4
	c-0.2,0.1-0.5,0-0.6-0.2c0,0,0,0,0,0c-2-5.2-2.9-8.7-6.3-12c-7.8-7.6-18.2-3.5-21.9,5.9c-6.1,15.5,4.6,25.8,17.3,32
	c6.6,3.2,10.2,5,10.7,5.3c8.6,5.3,15.5,12.2,20.6,20.6c19.3,32.2-6.4,81.8-46.7,70.7c-17.5-4.8-28.8-23.5-30.5-40.8
	c0-0.3,0.1-0.7,0.5-0.8l14.6-6.1c0.4-0.2,0.8,0,1,0.4c0,0.1,0.1,0.2,0.1,0.3c0.4,8.2,3.1,18,8.7,24.1c15.8,17,38,3.7,41.5-15.5
	c3.4-18.8-6.5-33-22.6-41.1C929.9,426.5,923.5,424,917,418.5z"/>
<path class="st0" d="M548.1,446.4l-20,62.4c-0.1,0.4-0.4,0.6-0.6,0.6l-16.5,0c-0.3,0-0.5-0.2-0.5-0.4c0,0,0-0.1,0-0.1l48.4-152
	c0.1-0.3,0.4-0.5,0.8-0.5l13.2-0.1c0.3,0,0.6,0.2,0.7,0.4c1,2.8,2,5.7,3,8.7c15,47.9,30.1,95.7,45.1,143.6c0.1,0.2-0.1,0.4-0.3,0.4
	c0,0-0.1,0-0.1,0l-16.3,0.2c-0.3,0-0.6-0.3-0.7-0.7l-19.7-62.5c-0.1-0.3-0.3-0.6-0.6-0.6h-35.2C548.4,445.8,548.2,446.1,548.1,446.4
	z M553.7,428.9c0,0.2,0,0.3,0.2,0.4c0,0,0.1,0,0.1,0h24.7c0.2,0,0.3-0.1,0.3-0.3c0,0,0-0.1,0-0.1l-12.4-39.3c0-0.2-0.2-0.3-0.4-0.2
	c-0.1,0-0.2,0.1-0.2,0.2L553.7,428.9z"/>
<path class="st0" d="M52.4,446.3l-20.1,62.5c-0.1,0.3-0.4,0.5-0.7,0.5l-16.4,0c-0.3,0-0.5-0.2-0.5-0.5c0-0.1,0-0.1,0-0.2l48.5-152
	c0.1-0.2,0.2-0.3,0.4-0.3h13.8c0.3,0,0.6,0.2,0.7,0.6l47.7,151.7c0.1,0.2-0.1,0.4-0.3,0.5c0,0-0.1,0-0.1,0l-16.1,0.5
	c-0.4,0-0.7-0.2-0.8-0.6l-19.8-62.6c-0.1-0.3-0.4-0.5-0.6-0.5H52.9C52.7,445.8,52.5,446,52.4,446.3z M57.9,428.9
	c-0.1,0.2,0,0.4,0.2,0.4c0,0,0.1,0,0.1,0h24.6c0.2,0,0.3-0.2,0.3-0.4c0,0,0-0.1,0-0.1l-12.3-39c-0.1-0.2-0.3-0.3-0.4-0.2
	c-0.1,0-0.2,0.1-0.2,0.2L57.9,428.9z"/>
<path class="st0" d="M201.5,413.8c0.9,0.4,1.7,0.9,2.4,1.5c24.9,21.4,26.3,59.5,3,82.3c-9.7,9.6-21.2,12.2-34.8,11.9
	c-11.6-0.2-23.3-0.3-34.9-0.2c-0.3,0-0.5-0.2-0.5-0.5c-0.2-10.9,0.2-23.1,0.1-32.7c-0.4-39.7-0.3-79.5-0.1-119.3
	c0-0.3,0.3-0.6,0.6-0.6l0,0c12,0,24.1,0,36.2,0c6.9,0,11.8,0.5,14.7,1.5c23.2,7.8,26.9,38.2,13.2,55.5
	C201.3,413.5,201.3,413.7,201.5,413.8C201.5,413.8,201.5,413.8,201.5,413.8z M179.5,406.2c18.9-0.5,16.1-33.4-0.7-33.2
	c-3.3,0.1-11.5,0-24.8,0c-0.3,0-0.6,0.2-0.6,0.5l0.2,32c0,0.3,0.2,0.6,0.5,0.6C162.6,406.4,171.1,406.4,179.5,406.2z M206.4,454.3
	c-1.1-13.8-12.2-30.9-27.3-30.9c-8.3,0-16.6,0-25,0c-0.3,0-0.5,0.2-0.5,0.5l-0.2,68.2c0,0.3,0.2,0.6,0.5,0.6c0,0,0,0,0,0
	c7.3,0,14.5-0.1,21.8-0.1C196.7,492.5,207.9,473.2,206.4,454.3z"/>
<path class="st0" d="M683.1,359.4c37.8,10.5,53.8,53.5,47.7,88.9c-4.3,25.1-20.5,49.9-45.9,57.6c-16.2,4.8-34.7,3.6-52,3.4
	c-0.3,0-0.5-0.2-0.5-0.5v-152c0-0.3,0.2-0.5,0.5-0.5C649.4,356.3,667,354.9,683.1,359.4z M649.5,492.4c23,0.6,42.5-2.5,55.3-23.1
	c13.7-22.1,13.7-52.3-0.9-74.2c-12.8-19.3-31.9-22.6-54-21.6c-0.4,0-0.7,0.3-0.7,0.7v118C649.2,492.2,649.3,492.4,649.5,492.4z"/>
<path class="st0" d="M200.6,540.8c1-2.7,2.4-7.6,6.4-6.1c0.2,0.1,0.3,0.3,0.2,0.6c0,0,0,0,0,0.1c-1.4,2.3-3.1,6.6-6.4,6
	C200.7,541.3,200.5,541.1,200.6,540.8C200.6,540.8,200.6,540.8,200.6,540.8z"/>
<path class="st0" d="M516.3,561.6c2.2,3.3,4.7,6.3,7.6,9.2c0.2,0.1,0.4,0.1,0.5,0c0,0,0,0,0.1-0.1c1.6-2.9,2.4-5.1,2.2-6.4
	c-0.4-2.8,0.7-3.8,3.3-3c0.3,0.1,0.5,0.3,0.5,0.6c-0.1,4.2-1.3,8-3.5,11.5c-0.3,0.5-0.3,1.2,0.1,1.6l4.1,4.8
	c0.1,0.1,0.1,0.3-0.1,0.5c-0.1,0-0.1,0.1-0.2,0.1c-3,0.6-5.1-0.4-6.4-3c-0.1-0.2-0.4-0.3-0.7-0.1c0,0,0,0-0.1,0
	c-16,11.9-27.9-7.7-13.9-16.2c0.2-0.1,0.3-0.4,0.2-0.6c0,0,0,0,0,0c-1.7-2.4-2.7-3.8-3-4.3c-2.9-5.9-0.4-12.9,6.5-13.4
	c12.4-0.9,12,13.3,2.9,18.2C516.2,561,516.1,561.3,516.3,561.6C516.2,561.5,516.2,561.6,516.3,561.6z M519.2,551.6
	c0.5-10.3-17-4.1-6.1,6.4c0.2,0.2,0.5,0.3,0.8,0.2C517.3,556.9,519,554.7,519.2,551.6z M509.6,575.8c3.7,2.9,8.2,1.3,11.5-1.2
	c0.2-0.2,0.3-0.6,0.1-0.8c0,0,0,0,0,0L513,564c-0.2-0.2-0.6-0.3-0.8-0.1c-3.6,2.2-5,5.3-4.2,9.5
	C508.2,574.3,508.8,575.1,509.6,575.8z"/>
<path class="st0" d="M35.1,576.2l0.1-10.1c0-0.4-0.2-0.7-0.5-0.7c0,0,0,0,0,0l-5.7,0c-0.5,0-0.9-0.2-0.9-0.4l-0.1-2.8
	c0-0.3,0.3-0.6,0.6-0.7c0,0,0,0,0,0l9.8-0.1c0.3,0,0.5,0.2,0.5,0.5v17.2c0,0.2-0.2,0.5-0.5,0.6c-35.1,11.3-31.7-45.6-1.3-36
	c0.5,0.1,0.8,0.4,0.8,0.6v3c0,0.2-0.3,0.4-0.6,0.4c-0.1,0-0.1,0-0.2,0c-14.2-4.3-21.6,6.2-19.4,19.2c1.5,8.9,8.8,10.9,16.6,9.7
	C34.8,576.5,35.1,576.3,35.1,576.2z"/>
<path class="st0" d="M96.8,555.9c0.8,1.5,2.1,2.5,3.7,2.9c7.6,1.9,14.7,5,12.2,14.6c-2.3,8.8-12.7,8.7-19.5,6.2
	c-0.5-0.2-0.8-0.4-0.8-0.7l-0.2-3.3c0-0.2,0.2-0.4,0.5-0.4c0.1,0,0.1,0,0.2,0.1c5.5,2.4,17.3,3.7,16-6.2c-0.2-1.9-1.2-3.2-3-4
	c-5.8-2.5-12.8-2.3-13.6-10.7c-1.1-11.8,10.5-13.4,18.9-10c0.3,0.1,0.5,0.4,0.5,0.7v3c0,0.2-0.2,0.4-0.4,0.4c0,0-0.1,0-0.1,0
	c-4.5-1.4-11.1-3.8-14.2,1.3C95.7,551.8,95.7,553.9,96.8,555.9z"/>
<path class="st0" d="M201.8,581.3c-8.3-0.1-15-8.8-14.9-19.5c0,0,0,0,0,0c0.1-10.7,6.9-19.4,15.2-19.3c8.3,0.1,15,8.8,14.9,19.5l0,0
	C216.9,572.7,210.1,581.4,201.8,581.3z M201.9,577.2c6,0,10.8-6.9,10.8-15.3c0-8.4-4.8-15.3-10.8-15.3c0,0,0,0,0,0
	c-6,0-10.8,6.9-10.8,15.3v0C191.1,570.3,195.9,577.2,201.9,577.2L201.9,577.2z"/>
<path class="st0" d="M392.2,579.5c-33.8,12.2-33.2-44.7-1.2-35.8c0.4,0.1,0.7,0.4,0.7,0.6l-0.1,3.1c0,0.2-0.3,0.4-0.6,0.3
	c0,0-0.1,0-0.1,0c-15.4-4.8-22.8,8.9-18.4,21.8c2.5,7.2,9.4,8.2,16,7.1c0.3-0.1,0.6-0.4,0.6-0.7v-9.8c0-0.4-0.2-0.7-0.5-0.7l-5.9,0
	c-0.4,0-0.8-0.1-0.8-0.3v-3.3c0-0.3,0.3-0.5,0.8-0.5h10c0.3,0,0.5,0.3,0.5,0.7c0,0,0,0,0,0l-0.3,16.8
	C392.7,579.1,392.5,579.4,392.2,579.5z"/>
<path class="st0" d="M695.5,581.3c-8.3-0.1-15-8.8-14.9-19.6s6.9-19.4,15.2-19.4c8.3,0.1,15,8.8,14.9,19.6S703.8,581.4,695.5,581.3
	L695.5,581.3z M695.7,577.1c6,0,10.9-6.8,10.9-15.3s-4.9-15.3-10.9-15.3l0,0c-6,0-10.9,6.8-10.9,15.3c0,0,0,0,0,0
	C684.8,570.3,689.7,577.1,695.7,577.1z"/>
<path class="st0" d="M60.4,564.1v11.8c0,0.3,0.2,0.5,0.5,0.5h15.3c0.3,0,0.5,0.2,0.5,0.5v3c0,0.3-0.2,0.5-0.5,0.5h0l-19,0.1
	c-0.3,0-0.5-0.3-0.5-0.6l0,0v-35.8c0-0.4,0.2-0.8,0.5-0.8h18c0.4,0,0.8,0.2,0.8,0.5v3.2c0,0.2-0.2,0.4-0.5,0.4l-14.3,0.1
	c-0.4,0-0.8,0.2-0.8,0.5l0,0v10.8c0,0.3,0.2,0.5,0.5,0.5l12.5,0.2c0.5,0,0.9,0.2,0.9,0.5c0,0,0,0,0,0l-0.1,3.1
	c0,0.1-0.3,0.2-0.8,0.2l-12.6,0C60.6,563.4,60.4,563.7,60.4,564.1z"/>
<path class="st0" d="M136.7,547.6l-9.3-0.1c-0.4,0-0.7-0.2-0.7-0.4v-3.2c0-0.3,0.3-0.5,0.8-0.5h23.5c0.4,0,0.8,0.2,0.8,0.5v3.2
	c0,0.2-0.3,0.3-0.8,0.3l-9.5,0.2c-0.3,0-0.5,0.2-0.5,0.4v31.8c0,0.4-0.3,0.8-0.7,0.8c0,0-0.1,0-0.1,0l-2.5-0.3
	c-0.3,0-0.5-0.2-0.5-0.5v-31.8C137.2,547.8,136.9,547.6,136.7,547.6z"/>
<path class="st0" d="M166.8,543.4l3,0c0.1,0,0.3,0.1,0.3,0.3l0.1,36.5c0,0.1-0.1,0.3-0.3,0.3l-3,0c-0.1,0-0.3-0.1-0.3-0.3l-0.1-36.5
	C166.6,543.5,166.7,543.4,166.8,543.4z"/>
<path class="st0" d="M236.8,550.6l0.1,29.2c0,0.2-0.2,0.4-0.5,0.5c-0.9,0.2-1.8,0.2-2.7,0c-0.3-0.1-0.5-0.3-0.5-0.5v-35.8
	c0-0.4,0.2-0.7,0.5-0.7c0,0,0,0,0,0l3.3,0.2c0.1,0,0.4,0.3,0.7,0.8l17.2,28.8c0.3,0.5,0.4,0.4,0.4-0.1l-0.1-29.1
	c0-0.4,0.2-0.7,0.5-0.7c0,0,0,0,0,0l2.8,0c0.3,0,0.5,0.3,0.5,0.8v35.8c0,0.3-0.2,0.5-0.4,0.6c-1,0.3-2.1,0.3-3.1-0.1
	c-0.3-0.1-0.5-0.3-0.7-0.6l-17.4-29.4C237,549.8,236.8,549.9,236.8,550.6z"/>
<path class="st0" d="M300.7,576.3h14.5c0.3,0,0.5,0.2,0.5,0.5v3c0,0.3-0.2,0.5-0.5,0.5l-18.2,0.1c-0.3,0-0.5-0.2-0.5-0.5
	c0,0,0,0,0,0l0.3-36.1c0-0.3,0.2-0.5,0.4-0.5h2.5c0.3,0,0.5,0.3,0.5,0.8v31.5C300.2,576,300.4,576.3,300.7,576.3z"/>
<path class="st0" d="M335.2,564.1v11.8c0,0.3,0.2,0.5,0.5,0.5h15.2c0.3,0,0.5,0.2,0.5,0.5v3c0,0.3-0.3,0.6-0.7,0.6l-18.8,0
	c-0.3,0-0.5-0.2-0.5-0.5l0,0l0-35.8c0-0.4,0.2-0.7,0.5-0.7l0,0h18c0.3,0,0.6,0.2,0.6,0.5c0,0,0,0,0,0l-0.1,3.3
	c0,0.3-0.3,0.5-0.7,0.5h-14c-0.3,0-0.5,0.2-0.5,0.5v10.8c0,0.3,0.2,0.5,0.5,0.5l12.5,0.1c0.4,0,0.8,0.3,0.8,0.6l0,0v2.8
	c0,0.3-0.3,0.5-0.8,0.5l-12.5,0.1C335.4,563.5,335.2,563.7,335.2,564.1z"/>
<path class="st0" d="M427.4,569.3h-12.2c-0.3,0-0.5,0.2-0.6,0.4l-3.3,10c-0.1,0.3-0.4,0.6-0.7,0.6h-3.2c-0.2,0-0.3-0.3-0.3-0.6
	c0-0.1,0-0.1,0-0.2l12.2-35.2c0.1-0.4,0.4-0.7,0.6-0.8c1.9-0.9,3.1-0.3,3.8,1.6c4,11.5,8,22.9,12,34.4c0.1,0.3,0,0.6-0.2,0.7
	c0,0-0.1,0-0.1,0l-3.2,0c-0.2,0-0.4-0.3-0.5-0.7l-3.4-9.8C428.2,569.5,427.8,569.3,427.4,569.3z M416.4,564.7
	c-0.1,0.2,0,0.4,0.2,0.4c0,0,0.1,0,0.1,0h9.4c0.2,0,0.3-0.2,0.3-0.3c0,0,0-0.1,0-0.1l-4.7-14.1c-0.1-0.2-0.3-0.3-0.4-0.2
	c-0.1,0-0.2,0.1-0.2,0.2L416.4,564.7z"/>
<path class="st0" d="M455.2,576.3h14.2c0.4,0,0.8,0.2,0.8,0.5v3c0,0.3-0.3,0.5-0.8,0.5l-17.9,0c-0.3,0-0.6-0.2-0.6-0.5l-0.2-35.8
	c0-0.4,0.2-0.8,0.5-0.8l0,0h3c0.3,0,0.5,0.3,0.5,0.8v31.8C454.7,576.1,454.9,576.3,455.2,576.3z"/>
<path class="st0" d="M567.3,543.4l3.4,0c0.1,0,0.3,0.1,0.3,0.3l0.2,36.4c0,0.1-0.1,0.3-0.3,0.3l-3.4,0c-0.1,0-0.3-0.1-0.3-0.3
	l-0.2-36.4C567,543.5,567.1,543.4,567.3,543.4z"/>
<path class="st0" d="M611,573.4l-0.3-29.6c0-0.3,0.2-0.5,0.5-0.5h3c0.3,0,0.5,0.2,0.5,0.5v36c0,0.3-0.2,0.5-0.5,0.5h-3
	c-0.3,0-0.6-0.3-0.8-0.7L593,550.5c-0.3-0.5-0.4-0.5-0.5,0.1l0.1,29.1c0,0.4-0.3,0.8-0.6,0.8c0,0,0,0,0,0l-2.6,0
	c-0.3,0-0.6-0.3-0.6-0.8v0l0-35.8c0-0.3,0.2-0.5,0.5-0.5l0,0l3,0c0.2,0,0.4,0.3,0.7,0.7l17.5,29.5C610.9,574,611,573.9,611,573.4z"
	/>
<path class="st0" d="M660.4,549.3l-0.1,0c-0.1,0-0.1,0-0.1,0.1c-3.5,9.9-7,19.8-10.5,29.6c-0.4,1.1-1.9,2.5-2.6,0.6
	c-3.7-10.2-7.3-20.4-10.9-30.6c-0.2-0.6-0.3-0.6-0.3,0l0.3,30.8c0,0.3-0.2,0.5-0.6,0.5l-2.7,0.1c-0.3,0-0.6-0.2-0.6-0.6c0,0,0,0,0,0
	l0-35.7c0-0.5,0.2-0.8,0.5-0.8l0,0l4.5,0c0.3,0,0.5,0.2,0.6,0.6l10,28.6c0.1,0.3,0.2,0.3,0.3,0l10-28.5c0.1-0.4,0.4-0.7,0.6-0.7
	l4.8,0c0.3,0,0.5,0.3,0.5,0.8l-0.1,35.5c0,0.4-0.3,0.8-0.6,0.8l-2.8,0c-0.3,0-0.5-0.2-0.5-0.5c0,0,0,0,0,0l0.3-30.3
	C660.5,549.4,660.5,549.3,660.4,549.3z"/>
<path class="st0" d="M743.9,561.4c8.4,3.2,6.2,15-0.8,17.9c-4,1.6-10.3,1-15.2,1.1c-0.3,0-0.6-0.3-0.6-0.6l0,0v-36
	c0-0.3,0.2-0.5,0.5-0.5c8.9-0.1,22.3-1.3,19.6,12.5c-0.5,2.4-2,3.6-3.7,5.1c-0.1,0.1-0.1,0.3,0,0.4
	C743.9,561.4,743.9,561.4,743.9,561.4z M742.7,549.9c-2.6-2.9-7.2-2.5-10.8-2.2c-0.3,0-0.5,0.2-0.5,0.5v10.8c0,0.3,0.2,0.5,0.5,0.5
	c5.3,0.1,13.9,0.6,11.6-7.9C743.4,550.8,743.1,550.3,742.7,549.9z M742.6,564.6c-1.1-0.6-2.3-1-3.7-1l-7-0.1c-0.3,0-0.6,0.1-0.6,0.3
	c0,0,0,0,0,0l0.1,12.1c0,0.2,0.3,0.4,0.6,0.4c6.1,0.2,14.4,0.3,13.1-8.3C744.9,566.5,744,565.4,742.6,564.6z"/>
<path class="st0" d="M765.9,543.3l3.4,0c0.2,0,0.3,0.1,0.3,0.3l0.1,36.5c0,0.2-0.1,0.3-0.3,0.3l-3.4,0c-0.2,0-0.3-0.1-0.3-0.3
	l-0.1-36.5C765.6,543.5,765.8,543.3,765.9,543.3z"/>
<path class="st0" d="M791.9,576.3h14.2c0.4,0,0.6,0.2,0.7,0.4c0,0,0,0,0,0l-0.2,3.1c0,0.3-0.3,0.5-0.7,0.5h-18
	c-0.2,0-0.4-0.2-0.4-0.5c0,0,0,0,0,0c0.3-11.9,0.2-23.8-0.2-35.8c0-0.4,0.2-0.7,0.6-0.8c0,0,0,0,0,0l3,0c0.3,0,0.5,0.3,0.5,0.8v31.8
	C791.4,576.1,791.6,576.3,791.9,576.3z"/>
<path class="st0" d="M823.2,543.3h3.2c0.1,0,0.3,0.1,0.3,0.3v36.5c0,0.1-0.1,0.3-0.3,0.3h-3.2c-0.1,0-0.3-0.1-0.3-0.3v-36.5
	C822.9,543.5,823,543.3,823.2,543.3z"/>
<path class="st0" d="M861.4,569.3h-12c-0.4,0-0.7,0.2-0.8,0.5l-3.3,9.8c-0.1,0.4-0.4,0.7-0.5,0.7l-3.4,0c-0.2,0-0.3-0.2-0.3-0.4
	c0,0,0-0.1,0-0.1l12.4-35.6c0.1-0.4,0.4-0.7,0.7-0.8c0.9-0.2,1.8-0.1,2.7,0.1c0.2,0.1,0.5,0.4,0.6,0.9l12.3,35.2
	c0.1,0.3,0,0.6-0.3,0.7c0,0-0.1,0-0.1,0l-3.2,0.2c-0.2,0-0.4-0.3-0.6-0.7l-3.5-10C862.1,569.5,861.8,569.3,861.4,569.3z
	 M850.5,564.6c-0.1,0.2,0,0.4,0.2,0.4c0,0,0.1,0,0.1,0l9.2,0.1c0.2,0,0.3-0.1,0.3-0.3c0,0,0-0.1,0-0.1l-4.5-14.2
	c-0.1-0.2-0.3-0.3-0.4-0.2c-0.1,0-0.2,0.1-0.2,0.2L850.5,564.6z"/>
<path class="st0" d="M898.2,564.3c-0.2,0.1-0.4,0.3-0.3,0.6c0,0,0,0.1,0.1,0.1l9.6,14.9c0.3,0.4,0.2,0.6-0.1,0.6l-4.1-0.1
	c-0.2,0-0.5-0.3-0.8-0.7l-8.8-13.8c-0.3-0.5-0.6-0.8-0.7-0.8l-4-0.2c-0.3,0-0.5,0.3-0.5,0.7c0,0,0,0,0,0v14.2c0,0.3-0.2,0.5-0.5,0.5
	h-2.8c-0.3,0-0.5-0.2-0.5-0.5v-36c0-0.2,0.2-0.4,0.5-0.5c8.8-0.5,22-1.1,20.4,12.2C905.2,560.3,902.7,563.2,898.2,564.3z M889,560.9
	c4.9,0.4,12.2,0.5,12.8-6c0.7-8.1-6.6-7.4-12.5-7.2c-0.3,0-0.5,0.2-0.5,0.5v12.5C888.7,560.7,888.8,560.8,889,560.9z"/>
<path class="st0" d="M923.7,543.4l3.2,0c0.1,0,0.3,0.1,0.3,0.3l-0.1,36.4c0,0.1-0.1,0.3-0.3,0.3l-3.2,0c-0.1,0-0.3-0.1-0.3-0.3
	l0.1-36.4C923.4,543.5,923.5,543.4,923.7,543.4z"/>
<path class="st0" d="M962.4,569.3h-12.2c-0.3,0-0.6,0.2-0.7,0.5l-3.2,9.8c-0.1,0.4-0.4,0.7-0.6,0.7h-3.2c-0.3,0-0.5-0.2-0.4-0.5
	c0-0.1,0-0.1,0-0.2l12.3-35.4c0.1-0.4,0.4-0.7,0.6-0.7l2.8-0.2c0.2,0,0.5,0.3,0.6,0.8l12.4,35.4c0.1,0.3,0,0.6-0.1,0.7
	c0,0-0.1,0-0.1,0h-3.3c-0.2,0-0.5-0.3-0.7-0.8l-3.3-9.7C963.1,569.5,962.8,569.3,962.4,569.3z M951.3,564.7c-0.1,0.2,0,0.3,0.2,0.4
	c0,0,0.1,0,0.1,0l9.4,0c0.2,0,0.3-0.1,0.3-0.3c0,0,0-0.1,0-0.1l-4.7-14c-0.1-0.2-0.2-0.3-0.4-0.2c-0.1,0-0.2,0.1-0.2,0.2
	L951.3,564.7z"/>
</svg>
