<?xml version="1.0" encoding="utf-8"?>
<!-- Generator: Adobe Illustrator 27.1.0, SVG Export Plug-In . SVG Version: 6.00 Build 0)  -->
<svg version="1.1" id="Capa_1" xmlns="http://www.w3.org/2000/svg" xmlns:xlink="http://www.w3.org/1999/xlink" x="0px" y="0px"
	 viewBox="0 0 105.3 112" style="enable-background:new 0 0 105.3 112;" xml:space="preserve">
<style type="text/css">
	.st0{fill:#104C77;}
</style>
<g>
	<path class="st0" d="M100.1,89.9c-1.8,0-3.4-0.9-4.7-2.3c-3.9-4-7.8-8-11.7-12C78.3,70.1,73,64.5,67.5,59.1c-1.6-1.6-3.4-3.1-5-4.7
		c-0.4-0.3-0.6-0.3-0.9,0c-1.9,2-3.8,3.9-5.6,5.9c-1.3,1.4-2,1.5-3.3,0.1c-5-5-10-9.9-15-14.9c-1.9-1.9-3.8-3.8-5.7-5.7
		c-0.8-0.8-0.8-1,0-1.8c2.9-2.9,5.8-5.7,8.6-8.6c4-4,8-8,12-12c0.1-0.1,0.2-0.2,0.3-0.3c0.8-0.8,1.4-0.8,2.2,0
		c1.3,1.3,2.6,2.6,4,3.9c5.5,5.5,11.1,10.9,16.6,16.5c1.7,1.8,1.5,1.3,0,2.8c-1.8,1.9-3.7,3.8-5.6,5.7c-1,1-1,1.5,0,2.4
		c4.3,4.1,8.6,8.2,12.9,12.3c3.7,3.6,7.5,7.2,11.2,10.8c2.9,2.8,5.8,5.6,8.7,8.4c1.5,1.4,2.5,3,2.3,5.1
		C105.1,87.7,102.9,89.7,100.1,89.9z"/>
	<path class="st0" d="M84.4,33.8c0,2.7-2.5,4.8-5.1,4.2c-1.1-0.3-2.1-1-2.9-1.9C71.1,31,66,25.8,60.8,20.7c-1.5-1.5-3.1-2.9-4.4-4.5
		c-2.2-2.5-1.1-6.2,2.1-7c1.4-0.3,2.6,0.1,3.6,1c1.7,1.4,3.1,3,4.7,4.5C72.2,20,77.6,25.3,83,30.6C83.9,31.6,84.5,32.5,84.4,33.8z"
		/>
	<path class="st0" d="M28.1,40.3c1.2,0,2.3,0.5,3.1,1.4c6.8,6.6,13.5,13.3,20.3,20c0.8,0.8,1.4,1.9,1.7,3c0.3,1.3-0.4,2.4-1.4,3.3
		c-1.9,1.7-4.1,1.6-6-0.1c-2.2-2.1-4.4-4.3-6.5-6.5c-4.5-4.5-9-8.9-13.5-13.4c-0.5-0.5-0.9-1-1.3-1.6C23,43.6,25,40.2,28.1,40.3z"/>
	<path class="st0" d="M26.8,91.7c-6.9,0-13.8,0-20.8,0c-2.1,0-2.6-0.6-2-2.6c0.6-2.4,2.4-3.8,5.1-3.9c2.8,0,5.6,0,8.4,0
		c8.9,0,17.7,0,26.6,0c1.7,0,3.3,0.4,4.5,1.8c0.8,0.9,1.1,2,1.1,3.1s-0.5,1.6-1.7,1.6c-4.1,0-8.2,0-12.3,0
		C32.8,91.7,29.8,91.7,26.8,91.7L26.8,91.7z"/>
	<path class="st0" d="M26,97.2c-8.1,0-16.3,0-24.4,0c-1.6,0-1.8-0.3-1.4-1.9c0.3-1,0.9-1.7,2-2C2.9,93.1,3.7,93,4.4,93
		c15.1,0,30.2,0,45.3,0c1.5,0,2.4,0.7,3.1,1.8c1,1.5,1,1.4-0.7,2.1c-0.5,0.2-1,0.2-1.6,0.2C42.4,97.2,34.2,97.2,26,97.2L26,97.2z"/>
</g>
</svg>
