<?xml version="1.0" encoding="utf-8"?>
<!-- Generator: Adobe Illustrator 27.1.0, SVG Export Plug-In . SVG Version: 6.00 Build 0)  -->
<svg version="1.1" id="Capa_1" xmlns="http://www.w3.org/2000/svg" xmlns:xlink="http://www.w3.org/1999/xlink" x="0px" y="0px"
	 viewBox="0 0 105.3 112" style="enable-background:new 0 0 105.3 112;" xml:space="preserve">
<style type="text/css">
	.st0{fill:#104C77;}
</style>
<g>
	<path class="st0" d="M55.2,47.1c0.3-0.7,0.5-1.3,0.8-2c0.9-2.4,1.9-4.7,2.8-7.1c0.2-0.5,0.4-1,0.7-1.4c0.7-0.8,1.6-1.3,2.7-1.3
		c3.6,0,7.3,0,10.9,0c1.5,0,2.8,0.9,3.3,2.4c0.7,1.8,1.4,3.6,2.1,5.5c1.2,3.1,2.5,6.3,3.7,9.4c0.6,1.5-0.4,3-1.9,3
		c-0.8,0-1.6-0.5-1.9-1.3c-1.1-2.8-2.2-5.7-3.3-8.5c-0.4-1.1-0.9-2.2-1.3-3.3c0-0.1-0.1-0.3-0.3-0.3c-0.2,0.1-0.1,0.3-0.1,0.4
		c0.3,1.8,0.7,3.6,1,5.4c0.9,4.5,1.7,9,2.6,13.5c0.1,0.4,0.2,0.9,0.2,1.3c0,0.2,0,0.3-0.2,0.3c-0.9,0-1.8,0-2.8,0
		C74,63,74,63.1,74,63.3c0.1,0.9,0.1,1.8,0.2,2.7c0.1,2.1,0.2,4.2,0.3,6.3c0.1,1.3,0.1,2.5,0.2,3.8c0,0.4,0.1,0.7,0.1,1.1
		c0,1.2-1,2.2-2.2,2.2s-2.2-0.9-2.3-2.1c-0.1-2.3-0.3-4.7-0.4-7c-0.1-1.3-0.1-2.6-0.2-3.9c-0.1-1-0.1-2-0.2-3c0-0.2-0.1-0.2-0.2-0.2
		c-1.1,0-2.3,0-3.4,0c-0.2,0-0.2,0.1-0.2,0.3c0,0.7-0.1,1.5-0.1,2.2c-0.1,2.1-0.2,4.2-0.3,6.4c-0.1,1.3-0.1,2.6-0.2,3.9
		c0,0.5,0,1.1-0.1,1.6c-0.1,1.1-1,1.9-2.2,2c-1.1,0-2.1-0.8-2.2-1.9c-0.1-0.5,0-1,0-1.6c0-0.8,0.1-1.6,0.1-2.5
		c0.1-2.1,0.2-4.3,0.3-6.4c0.1-1.2,0.1-2.4,0.2-3.6c0-0.3-0.1-0.3-0.3-0.3c-0.9,0-1.8,0-2.7,0c-0.3,0-0.4,0-0.3-0.3
		c0.5-2.4,0.9-4.8,1.4-7.1c0.8-4.3,1.7-8.6,2.5-12.9c0-0.1,0.2-0.4-0.1-0.4c-0.2-0.1-0.2,0.2-0.3,0.3c-1.5,3.8-3,7.7-4.5,11.5
		c-0.2,0.5-0.4,1.1-0.9,1.5c-1.3,1.2-3.3,0.6-3.8-1.1c-0.6-2.1-1.2-4.3-1.7-6.4c-0.5-1.8-1-3.5-1.4-5.3c0-0.1,0-0.1-0.1-0.2
		c0-0.1-0.1-0.2-0.2-0.1c-0.1,0,0,0.1,0,0.2c0,3.3,0,6.5,0,9.8c0,2,0.2,3.9,0.3,5.9c0.1,1.2,0.1,2.4,0.2,3.6
		c0.1,1.7,0.2,3.4,0.3,5.1c0.1,1.2,0.1,2.4,0.2,3.6c0.1,1.7,0.2,3.4,0.3,5.1c0,0.8,0.1,1.5-0.3,2.3c-0.5,1-1.8,1.6-2.9,1.4
		c-1.2-0.2-2.2-1.2-2.3-2.3c-0.1-0.9-0.1-1.7-0.2-2.6c-0.1-2.1-0.2-4.1-0.3-6.2c-0.1-1.3-0.1-2.6-0.2-4c-0.1-1.6-0.2-3.2-0.3-4.8
		c0-0.5-0.1-1-0.1-1.5s-0.3-0.7-0.7-0.7c-0.5,0-0.8,0.2-0.8,0.7c-0.1,0.8-0.1,1.6-0.1,2.4c-0.1,2.1-0.2,4.2-0.3,6.4
		c-0.1,1.2-0.1,2.4-0.2,3.7c-0.1,1.6-0.2,3.3-0.3,4.9c0,0.5-0.1,1-0.1,1.5c0,1.6-1.3,2.8-2.9,2.7c-1.5,0-2.7-1.3-2.7-2.8
		c0-1.4,0.1-2.7,0.2-4.1c0-0.8,0.1-1.6,0.1-2.5c0.1-2.1,0.2-4.2,0.3-6.3c0.1-1.2,0.1-2.4,0.2-3.6c0.1-1.7,0.2-3.3,0.3-5
		c0-0.8,0.1-1.7,0.1-2.5c0.1-3.3,0-6.6,0.1-9.9c0-0.1,0.1-0.2-0.1-0.3c-0.1,0-0.1,0.1-0.2,0.2c-0.6,2.1-1.1,4.2-1.7,6.3
		c-0.5,1.8-1,3.7-1.5,5.5c-0.3,1.2-1.5,1.9-2.7,1.7c-1.1-0.2-2-1.3-1.8-2.5c0.1-0.8,0.4-1.6,0.6-2.4c1.1-4.2,2.3-8.5,3.4-12.7
		c0.2-0.8,0.5-1.6,1.2-2.2c0.6-0.5,1.4-0.9,2.2-0.9c4.4,0,8.8,0,13.2,0c1.5,0,2.9,1.1,3.3,2.6C53.5,41,54.3,44.1,55.2,47.1
		C55.1,47.1,55.2,47.1,55.2,47.1z"/>
	<path class="st0" d="M96.1,54c-0.1,0.1,0,0.2,0,0.4c0,1.9,0,3.9,0,5.8c0,1.4,0.1,2.7,0.2,4.1c0,0.9,0.1,1.8,0.1,2.7
		c0.1,2,0.2,4.1,0.3,6.1c0.1,1.4,0.1,2.8,0.2,4.2c0,1-0.8,1.9-1.8,1.9c-1.1,0-2-0.8-2-1.9c-0.1-2-0.2-4-0.3-6
		c-0.1-1.3-0.1-2.6-0.2-3.9c0-1-0.1-1.9-0.2-2.9c0-0.3-0.2-0.4-0.5-0.4s-0.5,0.1-0.5,0.4c0,0.5-0.1,1-0.1,1.6
		c-0.1,2.1-0.2,4.2-0.3,6.4c-0.1,1.2-0.1,2.5-0.2,3.7c0,0.5,0,1-0.1,1.5c-0.2,1.1-1.1,1.8-2.2,1.6c-1-0.1-1.7-1.1-1.6-2.2
		c0.1-0.8,0.1-1.6,0.1-2.4c0.1-2.2,0.2-4.3,0.3-6.5c0.1-1.2,0.1-2.4,0.2-3.7c0.1-1.3,0.1-2.6,0.2-3.9c0-0.1,0-0.3,0-0.4
		c0-2,0-3.9,0-5.9c0-0.1,0-0.2,0-0.3c-0.2,0.1-0.2,0.2-0.2,0.3c-0.7,2.6-1.4,5.2-2.1,7.8c-0.2,0.8-0.9,1.3-1.7,1.3
		c-0.8,0-1.4-0.6-1.5-1.4c0-0.2,0-0.5,0.1-0.7c0.9-3.4,1.8-6.8,2.8-10.3c0.3-1,1.2-1.8,2.3-1.8c3,0,6,0,9,0c1.1,0,2,0.8,2.3,1.8
		c0.6,2.3,1.3,4.7,1.9,7c0.3,1.1,0.6,2.2,0.9,3.3c0.2,0.7-0.2,1.5-0.8,1.8c-0.7,0.3-1.5,0.1-2-0.5c-0.2-0.2-0.2-0.4-0.3-0.7
		c-0.7-2.6-1.4-5.2-2.1-7.8C96.2,54.2,96.2,54.1,96.1,54z"/>
	<path class="st0" d="M19.1,49.6c0.9,0,2.2,0,3.5,0c0.4,0,0.7,0.2,1,0.4c0.5,0.4,0.8,0.8,1,1.4c1.2,3.2,2.5,6.4,3.8,9.6
		c0.2,0.4,0.3,0.8,0.1,1.3c-0.2,0.6-0.6,0.8-1.2,0.9c-0.5,0.1-1-0.1-1.3-0.5c-0.2-0.3-0.3-0.6-0.4-1c-0.9-2.4-1.9-4.7-2.8-7.1
		c0-0.1-0.1-0.4-0.2-0.3c-0.2,0,0,0.3,0,0.4c0.8,4.4,1.7,8.9,2.5,13.3c0.1,0.4,0.1,0.4-0.3,0.4c-0.5,0-1,0-1.6,0
		c-0.2,0-0.3,0-0.3,0.3c0.1,1.3,0.1,2.6,0.2,3.9c0.1,1.7,0.2,3.3,0.3,5c0.1,1.2-0.7,1.9-1.8,1.7c-0.7-0.1-1.1-0.6-1.2-1.3
		c-0.1-0.9-0.1-1.9-0.2-2.8c-0.1-2.2-0.2-4.4-0.3-6.6c0-0.2-0.1-0.2-0.2-0.2c-0.7,0-1.4,0-2.1,0c-0.2,0-0.3,0.1-0.3,0.3
		c0,0.4,0,0.7-0.1,1.1c-0.1,1.7-0.2,3.4-0.2,5.1c0,1,0,2.1-0.2,3.1c-0.1,0.9-0.7,1.3-1.6,1.2c-0.8-0.1-1.3-0.6-1.3-1.4
		c0-1.5,0.1-3.1,0.2-4.6c0-0.7,0.1-1.4,0.1-2.2c0-0.8,0.1-1.6,0.1-2.4c0-0.3-0.1-0.3-0.3-0.3c-0.5,0-1,0-1.6,0c-0.3,0-0.4,0-0.3-0.4
		c0.5-2.4,0.9-4.8,1.4-7.1c0.4-2.1,0.8-4.1,1.2-6.2c0-0.1,0.1-0.3,0-0.3c-0.2-0.1-0.2,0.2-0.2,0.3c-0.8,2-1.6,4.1-2.4,6.1
		c-0.2,0.6-0.5,1.2-0.7,1.7s-0.6,0.9-1.1,0.9c-0.6,0-1.1-0.2-1.5-0.8c-0.2-0.4-0.1-0.8,0-1.2c0.6-1.5,1.1-2.9,1.7-4.4
		c0.8-1.9,1.5-3.8,2.3-5.7c0.3-0.9,1.3-1.5,2.2-1.5C16.2,49.6,17.4,49.6,19.1,49.6z"/>
	<path class="st0" d="M67.6,22.1c3.3,0,6,2.7,6.1,6c0,3.3-2.7,6.1-6,6.1c-3.5,0-6.1-2.8-6.1-6.1S64.3,22.1,67.6,22.1z"/>
	<path class="st0" d="M42.7,34.2c-3.3,0.1-6.1-2.7-6-6.1c0-3.1,2.6-6,6-5.9c3.5,0,6.1,2.8,6.1,6.1C48.8,31.8,45.8,34.3,42.7,34.2z"
		/>
	<path class="st0" d="M91.9,48.5c-2.3,0-4.1-1.9-4.1-4.1c0-2.3,1.9-4.1,4.1-4.1c2.3,0,4.1,1.9,4.1,4.1
		C96.1,46.7,94.2,48.5,91.9,48.5z"/>
	<path class="st0" d="M22.7,44.8c0,2.3-1.8,4.1-4.1,4.1c-2.2,0-4.1-1.9-4.1-4.1c0-2.3,1.8-4.1,4.1-4.1S22.7,42.5,22.7,44.8z"/>
</g>
</svg>
