<?xml version="1.0" encoding="utf-8"?>
<!-- Generator: Adobe Illustrator 27.1.0, SVG Export Plug-In . SVG Version: 6.00 Build 0)  -->
<svg version="1.1" id="Capa_1" xmlns="http://www.w3.org/2000/svg" xmlns:xlink="http://www.w3.org/1999/xlink" x="0px" y="0px"
	 viewBox="0 0 30 30" style="enable-background:new 0 0 30 30;" xml:space="preserve">
<style type="text/css">
	.st0{fill:#FFFFFF;}
</style>
<g>
	<g>
		<path class="st0" d="M14.5,22.2l1.6,1.3H9.5l1.6-1.4l-1.8-4.3H4.1L2.3,22v0l2.5,1.5H0.2L7.5,6.8h0.1L14.5,22.2z M4.6,16.7h4.2
			l-2.1-5L4.6,16.7z"/>
	</g>
	<g>
		<g>
			<path class="st0" d="M15.7,12.5c0,0.5-0.3,0.8-1.2,1.4c0,0,0,0,0,0c0.3,0.3,1.1,1,1.7,1.4c0,0,0,0,0.1,0c0.2-0.3,0.4-0.7,0.5-1.1
				c0-0.1,0.1-0.3-0.1-0.3c-0.1,0-0.3-0.1-0.5-0.1c0,0,0-0.2,0-0.3c0.1,0,0.5,0,0.9,0c0.5,0,0.8,0,0.9,0c0,0,0,0.2,0,0.3
				c-0.1,0-0.3,0-0.4,0.1c-0.2,0.1-0.3,0.2-0.4,0.3c-0.3,0.6-0.6,1-0.8,1.3c0,0,0,0.1,0,0.1c0.5,0.4,1.2,0.9,1.4,1.1
				c0,0.2-0.3,0.7-0.4,0.8c0,0-0.1,0-0.1,0c-0.1-0.1-0.2-0.2-0.3-0.3l-1.1-0.9c0,0,0,0,0,0c-0.6,0.8-1.3,1-1.9,1
				c-1.1,0-1.7-0.7-1.7-1.6c0-0.5,0.3-0.9,1.2-1.5c0,0,0,0,0,0c-0.3-0.4-0.5-0.7-0.5-1.3c0-0.8,0.7-1.4,1.4-1.4
				C15.2,11.4,15.7,11.9,15.7,12.5z M13.8,14.3c-0.3,0.3-0.7,0.6-0.7,1.1c0,0.8,0.6,1.3,1.4,1.3c0.4,0,0.9-0.2,1.3-0.6
				c0,0,0,0,0-0.1C15.2,15.5,14.4,14.9,13.8,14.3C13.9,14.3,13.8,14.3,13.8,14.3z M13.7,12.5c0,0.4,0.2,0.8,0.6,1.2c0,0,0,0,0.1,0
				c0.5-0.3,0.7-0.7,0.7-1.2c0-0.4-0.2-0.8-0.7-0.8C14,11.7,13.7,12,13.7,12.5z"/>
		</g>
	</g>
	<g>
		<path class="st0" d="M23.5,17h-2.4v5l2.5,1.5h-7l1.6-1.4V9l-1.6-1.4h6.9c1.9,0,3.5,0.4,4.6,1.1c1.1,0.7,1.7,1.8,1.7,3.3
			c0,1.5-0.6,2.8-1.7,3.7C26.9,16.6,25.4,17,23.5,17z M21.2,8.8v7h2c1.1,0,2-0.3,2.6-1c0.6-0.6,0.9-1.5,0.9-2.7
			c0-1.1-0.3-1.9-0.9-2.5c-0.6-0.6-1.5-0.9-2.6-0.9H21.2z"/>
	</g>
</g>
</svg>
