<?xml version="1.0" encoding="utf-8"?>
<!-- Generator: Adobe Illustrator 27.1.0, SVG Export Plug-In . SVG Version: 6.00 Build 0)  -->
<svg version="1.1" id="Capa_1" xmlns="http://www.w3.org/2000/svg" xmlns:xlink="http://www.w3.org/1999/xlink" x="0px" y="0px"
	 viewBox="0 0 105.3 112" style="enable-background:new 0 0 105.3 112;" xml:space="preserve">
<style type="text/css">
	.st0{fill:#104C77;}
</style>
<g>
	<path class="st0" d="M69.2,77.4c-0.7,2.6-1.4,5.2-2.1,7.8c-0.2,0.7-0.5,1-1.2,1.1c-6.1,1-12.2,1.2-18.3,0.9
		c-2.8-0.2-5.5-0.5-8.3-0.9c-0.6-0.1-0.8-0.4-0.9-0.9c-0.6-2.4-1.3-4.9-2-7.3c-0.1-0.3-0.2-0.5-0.3-0.8c0,2.3,0,4.6,0,7
		c0,1.4,0,1.4-1.4,1.1c-1.9-0.5-3.7-1-5.5-1.8c-0.5-0.2-0.7-0.5-0.8-1c-0.1-3.1-0.2-6.3,0-9.4c0.2-2.2,0.4-4.3,1-6.4
		c0.6-1.8,1.1-3.6,2.3-5.2c1.5-1.9,3.3-3.2,5.5-4.2c3-1.3,6.2-1.7,9.5-1.9c3-0.2,6.1-0.2,9.1-0.1c3.8,0.1,7.6,0.4,11.3,1.8
		c3.3,1.2,6,3.2,7.5,6.6c0.9,2.1,1.5,4.2,1.8,6.5c0.5,4.1,0.5,8.1,0.4,12.2c0,0.7-0.3,1.1-0.9,1.3c-1.9,0.8-3.9,1.4-6,1.9
		c-0.6,0.1-0.8,0-0.8-0.6c0-2.5,0-5,0-7.4C69.2,77.4,69.2,77.4,69.2,77.4z"/>
	<path class="st0" d="M7.3,64.8c0.1,2.1,0.2,4.1,0.4,6.2c0.1,1,0.1,1.1-1,0.9c-1.3-0.3-2.7-0.6-4-1.1c-0.3-0.1-0.6-0.3-0.7-0.7
		c-1.3-4.9-1.9-9.8-0.9-14.8C1.9,51,4.7,48.4,8.7,47c2.3-0.8,4.8-1.1,7.2-1.3c2.9-0.2,5.7-0.2,8.6-0.1c3.4,0.1,6.7,0.5,9.9,1.9
		c1.8,0.8,3.3,1.9,4.5,3.4c0.6,0.8,0.6,0.9-0.4,1.1c-2.5,0.7-4.9,1.8-7,3.3c-3.8,2.8-5.8,6.7-6.5,11.3c-0.3,1.9-0.5,3.7-0.4,5.6
		c0,0.7-0.2,0.9-0.9,1c-3.6,0.1-7.3,0-10.9-0.5c-0.7-0.1-1.4-0.2-2.1-0.3c-0.4,0-0.6-0.2-0.8-0.7c-0.8-2.4-1.6-4.7-2.4-7.1
		C7.3,64.8,7.3,64.8,7.3,64.8z"/>
	<path class="st0" d="M98,64.7c-0.6,1.7-1.2,3.5-1.8,5.2c-0.2,0.6-0.4,1.1-0.6,1.7c-0.1,0.6-0.5,0.9-1.1,0.9
		c-4.2,0.6-8.5,0.8-12.8,0.7c-0.9,0-0.9-0.1-0.9-1c0-2.6-0.2-5.3-0.9-7.8c-1.4-5.5-5-9.2-10.1-11.4c-1-0.4-2.1-0.8-3.2-1.1
		c-0.6-0.1-0.6-0.4-0.3-0.8c1.7-2.4,4.1-3.7,6.9-4.5c2.3-0.6,4.7-1,7.1-1c4-0.1,7.9-0.2,11.9,0.3c1.8,0.2,3.5,0.6,5.1,1.3
		c4.2,1.6,6.5,4.7,7.1,9.2c0.6,4.6,0.1,9.1-1.1,13.5c-0.1,0.4-0.3,0.6-0.7,0.8c-1.4,0.5-2.9,0.8-4.4,1.2c-0.6,0.1-0.6-0.2-0.6-0.6
		c0.1-1.9,0.2-3.8,0.4-5.7C98.1,65.3,98,65,98,64.7L98,64.7z"/>
	<path class="st0" d="M52.6,52.7c-7.1,0-13.5-5.6-13.5-13.6c0-7.8,6.3-13.6,13.7-13.5c7.3,0.1,13.5,5.9,13.5,13.6
		C66.2,47.1,59.7,52.7,52.6,52.7z"/>
	<path class="st0" d="M85.5,43.4c-6.2,0-11.2-5-11.2-11.2s5.1-11.4,11.3-11.3c6.5,0.1,11.2,5.3,11.2,11.2
		C96.8,38.4,91.8,43.4,85.5,43.4z"/>
	<path class="st0" d="M20.9,43c-6.3,0-11.2-5-11.2-11.2s5-11.2,11.2-11.1c6.3,0,11.3,5,11.3,11.2C32.2,38,27.1,43,20.9,43z"/>
</g>
</svg>
